<svg version="1.1" id="Layer_2_00000122696238348130899250000015979257090048309694_" xmlns:x="ns_extend;" xmlns:i="ns_ai;" xmlns:graph="ns_graphs;" xmlns="http://www.w3.org/2000/svg" xmlns:xlink="http://www.w3.org/1999/xlink" x="0px" y="0px" viewBox="0 0 251 60" style="enable-background:new 0 0 251 60;" xml:space="preserve">
 <metadata>
  <sfw xmlns="ns_sfw;">
   <slices>
   </slices>
   <sliceSourceBounds bottomLeftOrigin="true" height="60" width="251" x="-1.7" y="88.6">
   </sliceSourceBounds>
  </sfw>
 </metadata>
 <g>
  <path d="M22.7,21l-7.5-0.8c-6.8-0.5-7.2-1-7.2-5.6c0-5.5,0.5-6,10.8-6c6,0,9.1,0.3,11.5,0.8L30.9,9V7.4c0-3.3-1.2-4.4-13.7-4.4
		C3,2.9,0,4.6,0,15.3c0,9.2,1.6,11.5,10.4,12.4l7.7,0.8c6.5,0.5,7.2,1,7.2,5.6c0,5.8-0.5,6.6-10.2,6.6c-7.2,0-12-0.4-14.7-1.2
		L0,39.8v2.1C0,45.8,1.4,47,15.2,47c15.9,0,18.4-2.5,18.4-13S31.6,21.9,22.7,21z">
  </path>
  <path d="M56.6,15.1c-5.3,0-7.5,1.3-9.1,3.7c-0.4-2.6-1.4-3.3-3.5-3.3h-3.5l-0.5,0.7V60l7.8-1.2V43.7c1.4,2.5,3.9,2.9,9.5,2.9
		c8.6,0,10.7-2.1,10.7-15.9C67.7,17.2,66.2,15.1,56.6,15.1z M53.6,40.8c-5.2,0-6.2-1-6.2-4.6V26.1c0-4.1,1.6-4.8,6.1-4.8
		c5.8,0,6.2,0.9,6.2,9.9C59.7,39.8,59.1,40.8,53.6,40.8z">
  </path>
  <path d="M87.5,40.2h-0.9c-1.2,0-1.3-0.1-1.6-1.4l-5.7-23.4h-8.4L78,40.3c1.6,5.8,2.5,6.2,7.9,6.4l-0.8,3.4C84.1,53.8,83.7,54,80,54
		c-1.3,0-2.7,0-3.8-0.3l-0.5,0.4v1.7c0,3,1.2,3.9,6.2,3.9c7.2,0,7.9-1.3,10-8.7l9.8-35.7h-7.9L87.5,40.2z">
  </path>
  <path d="M127.2,2.8c-16,0-18,2.1-18,22s2.1,22,17.7,22c11.2,0,13-1,13-3.3v-1.4l-0.4-0.3c-2.1,0.5-5.6,0.9-11.3,0.9
		c-12.9,0-14-0.9-14-17.8s1-17.8,14-17.8c5.8,0,9.6,0.4,11.3,0.8l0.4-0.3V6.4C140.1,3.8,138.4,2.8,127.2,2.8z">
  </path>
  <polygon points="148.3,46.4 153,46.4 153,0 148.3,0.8 	">
  </polygon>
  <path d="M173.6,15.1c-11.3,0-12.9,2.4-12.9,15.9s1.6,15.9,12.9,15.9s12.9-2.4,12.9-15.9S185.2,15.1,173.6,15.1z M173.6,42.8
		c-7.2,0-8.1-1-8.1-12s1-12,8.1-12c7.2,0,8.1,1,8.1,12C181.8,42,180.7,42.8,173.6,42.8z">
  </path>
  <path d="M213.3,37.5c0,4.6-3.3,5.3-8.1,5.3c-5.6,0-6.6-0.8-6.6-7V15.5h-4.8v20.6c0,9.2,2,10.6,10,10.6c6,0,7.9-0.9,9.8-3.5
		c0.3,2.6,0.9,3,2.4,3h2l0.3-0.4V15.4h-5.1v22l0,0V37.5z">
  </path>
  <path d="M246.1,0.8v17.4c-1.4-2.5-3.9-2.9-9.5-2.9c-9.6,0-11.3,2.4-11.3,15.9c0,13.6,1.6,15.9,11.1,15.9c6.2,0,8.1-1.2,9.8-3.5
		c0.3,2.6,0.9,3,2.4,3h2l0.4-0.4V0L246.1,0.8z M246.1,37.4c0,4.6-3,5.5-7.9,5.5c-7.2,0-7.9-1-7.9-12c0-11.1,0.9-12,7.8-12
		c6.6,0,7.9,1.4,7.9,5.2L246.1,37.4L246.1,37.4z">
  </path>
 </g>
</svg>